<svg xmlns="http://www.w3.org/2000/svg" width="44" height="44" viewBox="0 0 44 44">
    <circle cx="22" cy="22" r="22" fill="#eda3b5" opacity="0.1"/>
    <g transform="translate(10 10)">
        <rect width="24" height="24" fill="none"/>
        <g transform="translate(0 2)" fill="none"
            stroke-linejoin="round" stroke-miterlimit="10">
            <path d="M12,20a1.464,1.464,0,0,1-.928-.327c-.97-.794-1.9-1.54-2.729-2.2l0,0A49.563,49.563,0,0,1,2.38,12.233,8.088,8.088,0,0,1,0,6.756a6.775,6.775,0,0,1,1.9-4.8A6.663,6.663,0,0,1,6.7,0a6.3,6.3,0,0,1,3.771,1.219A7.46,7.46,0,0,1,12,2.71a7.461,7.461,0,0,1,1.525-1.491A6.3,6.3,0,0,1,17.3,0a6.663,6.663,0,0,1,4.8,1.957,6.775,6.775,0,0,1,1.9,4.8,8.087,8.087,0,0,1-2.38,5.477,49.552,49.552,0,0,1-5.958,5.238c-.826.659-1.762,1.407-2.734,2.2A1.465,1.465,0,0,1,12,20Z" stroke="none"/><path d="M 12.00010585784912 17.84898567199707 C 12.87739181518555 17.13424682617188 13.72099304199219 16.46106147766113 14.4144401550293 15.90769004821777 C 16.75909996032715 14.03604984283447 18.78401947021484 12.41963958740234 20.12199020385742 10.9073600769043 C 21.42079925537109 9.439519882202148 22 8.159170150756836 22 6.75590991973877 C 22 5.436989784240723 21.52796936035156 4.231029987335205 20.67091941833496 3.360270023345947 C 19.80747032165527 2.483089923858643 18.60876083374023 2 17.29558944702148 2 C 16.32695960998535 2 15.47729969024658 2.274410009384155 14.6979398727417 2.83899998664856 C 14.29096984863281 3.133780002593994 13.91580009460449 3.501820087432861 13.58283996582031 3.932899951934814 C 13.2041130065918 4.42326021194458 12.61957168579102 4.710360050201416 11.9999942779541 4.710360050201416 C 11.99995613098145 4.710360050201416 11.99983787536621 4.710360050201416 11.99979972839355 4.710360050201416 C 11.38016986846924 4.710299968719482 10.79555988311768 4.42303991317749 10.41691017150879 3.93257999420166 C 10.08444976806641 3.501960039138794 9.70934009552002 3.133970022201538 9.302129745483398 2.838920116424561 C 8.522879600524902 2.274410009384155 7.673220157623291 2 6.70458984375 2 C 5.391419887542725 2 4.192709922790527 2.483089923858643 3.329329967498779 3.360199928283691 C 2.472100019454956 4.231160163879395 2 5.43710994720459 2 6.75590991973877 C 2 8.159000396728516 2.579279899597168 9.439430236816406 3.878210067749023 10.90754985809326 C 5.216499805450439 12.42004013061523 7.241700172424316 14.03656005859375 9.586669921875 15.90834045410156 C 9.590428352355957 15.91133499145508 9.594170570373535 15.91434574127197 9.597901344299316 15.91736793518066 C 10.32667827606201 16.49905776977539 11.14102077484131 17.14908981323242 12.00010585784912 17.84898567199707 M 12 20 C 11.65832996368408 20 11.32892036437988 19.88405990600586 11.07219982147217 19.6734504699707 C 10.10266017913818 18.87936019897461 9.167909622192383 18.13312911987305 8.343199729919434 17.4748706817627 L 8.338990211486816 17.47143936157227 C 5.921080112457275 15.54144954681396 3.8331298828125 13.87473011016846 2.380369901657104 12.23287010192871 C 0.7564100027084351 10.39739036560059 -1.77635683940025e-15 8.657090187072754 -1.77635683940025e-15 6.75590991973877 C -1.77635683940025e-15 4.908760070800781 0.6762099862098694 3.204639911651611 1.903929948806763 1.957260012626648 C 3.146300077438354 0.6951299905776978 4.851009845733643 0 6.70458984375 0 C 8.089969635009766 0 9.358699798583984 0.4102500081062317 10.47546005249023 1.219259977340698 C 11.03905963897705 1.627619981765747 11.54992961883545 2.127399921417236 12 2.710360050201416 C 12.45026016235352 2.127399921417236 12.96094036102295 1.627619981765747 13.52472019195557 1.219259977340698 C 14.64148044586182 0.4102500081062317 15.9102201461792 0 17.29558944702148 0 C 19.14899063110352 0 20.85387992858887 0.6951299905776978 22.09625053405762 1.957260012626648 C 23.3239803314209 3.204639911651611 24 4.908760070800781 24 6.75590991973877 C 24 8.657090187072754 23.2437801361084 10.39739036560059 21.61981010437012 12.23270034790039 C 20.16704940795898 13.87473011016846 18.07928085327148 15.54127979278564 15.66174030303955 17.47109985351563 C 14.83557033538818 18.13038063049316 13.8993501663208 18.8778190612793 12.92761039733887 19.67378997802734 C 12.67107963562012 19.88405990600586 12.34148979187012 20 12 20 Z" stroke="none" fill="#eda3b5"/></g></g></svg>